<?xml version="1.0" standalone="no"?>
<!DOCTYPE svg PUBLIC "-//W3C//DTD SVG 20010904//EN"
 "http://www.w3.org/TR/2001/REC-SVG-20010904/DTD/svg10.dtd">
<svg version="1.0" xmlns="http://www.w3.org/2000/svg"
 width="512.000000pt" height="512.000000pt" viewBox="0 0 512.000000 512.000000"
 preserveAspectRatio="xMidYMid meet">
<metadata>
Created by potrace 1.14, written by Peter Selinger 2001-2017
</metadata>
<g transform="translate(0.000000,512.000000) scale(0.100000,-0.100000)"
fill="#000000" stroke="none">
<path d="M2535 4792 c-11 -7 -41 -51 -61 -87 -58 -107 -136 -248 -154 -280
-38 -68 -271 -487 -303 -545 -16 -30 -33 -59 -37 -65 -4 -5 -25 -41 -46 -80
-21 -38 -109 -197 -196 -353 -87 -156 -158 -285 -158 -287 0 -3 -13 -27 -30
-53 -16 -27 -30 -52 -30 -56 0 -3 468 -6 1040 -6 572 0 1040 2 1040 5 0 4 -62
119 -128 235 -14 25 -36 65 -50 90 -13 25 -41 74 -62 110 -20 36 -52 92 -70
125 -18 33 -76 137 -128 230 -52 94 -105 188 -117 210 -13 22 -46 83 -75 135
-29 52 -66 120 -83 150 -16 30 -38 69 -47 85 -10 17 -29 51 -44 78 -129 233
-198 352 -209 359 -7 4 -19 8 -27 8 -8 0 -20 -4 -25 -8z"/>
<path d="M1288 2576 c-21 -41 -72 -133 -133 -241 -34 -60 -76 -135 -92 -165
-63 -113 -425 -763 -543 -975 -68 -121 -134 -240 -148 -265 -14 -25 -41 -74
-62 -110 -20 -36 -39 -72 -43 -80 -4 -8 -18 -33 -30 -55 -13 -22 -41 -71 -62
-110 -21 -38 -41 -74 -45 -80 -17 -22 -90 -168 -90 -179 0 -7 6 -20 13 -30 13
-17 116 -18 2507 -18 2387 0 2494 1 2507 18 23 32 25 27 -130 304 -122 217
-147 263 -147 266 0 1 -15 29 -34 61 -18 32 -45 78 -58 103 -14 25 -35 63 -48
85 -12 22 -79 141 -147 265 -140 252 -160 288 -193 345 -23 41 -97 173 -144
258 -14 26 -38 68 -52 95 -15 26 -40 72 -57 102 -16 30 -38 69 -47 85 -10 17
-27 46 -37 65 -11 19 -50 89 -87 156 l-68 121 -1259 0 -1260 0 -11 -21z"/>
</g>
</svg>
